<svg width="20" height="16" viewBox="0 0 20 16" fill="none" xmlns="http://www.w3.org/2000/svg">
<path d="M1.66668 1.39232L2.73334 0.333984L16.6667 14.2673L15.6083 15.334L13.0417 12.7673C12.0833 13.084 11.0667 13.2507 10 13.2507C5.83334 13.2507 2.27501 10.659 0.833344 7.00065C1.40834 5.53398 2.32501 4.24232 3.49168 3.21732L1.66668 1.39232ZM10 4.50065C10.6631 4.50065 11.2989 4.76404 11.7678 5.23288C12.2366 5.70172 12.5 6.33761 12.5 7.00065C12.5004 7.28446 12.4525 7.56626 12.3583 7.83398L9.16668 4.64232C9.4344 4.54814 9.7162 4.50023 10 4.50065ZM10 0.750651C14.1667 0.750651 17.725 3.34232 19.1667 7.00065C18.4866 8.72832 17.3308 10.2279 15.8333 11.3257L14.65 10.134C15.8024 9.3368 16.7318 8.2582 17.35 7.00065C16.6763 5.6256 15.6304 4.46713 14.3311 3.65691C13.0318 2.84668 11.5312 2.41722 10 2.41732C9.09168 2.41732 8.20001 2.56732 7.36668 2.83398L6.08334 1.55898C7.28334 1.04232 8.60834 0.750651 10 0.750651ZM2.65001 7.00065C3.32371 8.3757 4.36965 9.53418 5.66895 10.3444C6.96825 11.1546 8.46879 11.5841 10 11.584C10.575 11.584 11.1417 11.5257 11.6667 11.409L9.76668 9.50065C9.18681 9.4385 8.6457 9.17971 8.23332 8.76734C7.82095 8.35496 7.56216 7.81385 7.50001 7.23398L4.66668 4.39232C3.84168 5.10065 3.15001 5.98398 2.65001 7.00065Z" fill="#96989C"/>
</svg>
